<svg class="marks" width="200" height="200" viewBox="0 0 200 200" version="1.1" xmlns="http://www.w3.org/2000/svg" xmlns:xlink="http://www.w3.org/1999/xlink"><g fill="none" stroke-miterlimit="10" transform="translate(0,0)"><g class="mark-group role-frame root" role="graphics-object" aria-roledescription="group mark container"><g transform="translate(0,0)"><path class="background" aria-hidden="true" d="M0,0h200v200h-200Z"></path><g><g class="mark-arc role-mark" role="graphics-symbol" aria-roledescription="arc mark container"><path transform="translate(100,100)" d="M79.77581337292847,-46.72009502360564A7,7,0,0,1,89.847236036565,-43.90300874188211A100,100,0,0,1,99.15318343751183,-12.986385725332866A7,7,0,0,1,92.31013697760716,-5.078020234545755L66.06623023636234,-4.711783174448316A7,7,0,0,1,59.07631688564883,-10.487553729369068A60,60,0,0,0,55.049814839364316,-23.864573873247856A7,7,0,0,1,57.69017709621318,-32.53907105211538Z" fill="#1f77b4"></path><path transform="translate(100,100)" d="M92.41589123821672,2.500144990426101A7,7,0,0,1,99.47695442896546,10.214476860688078A100,100,0,0,1,76.15911481050317,64.80578084770367A7,7,0,0,1,65.7037094628326,65.038221386741L47.8229502391755,45.824808878471025A7,7,0,0,1,47.415418701591804,36.76653463889055A60,60,0,0,0,59.345964965098254,8.834955707943896A7,7,0,0,1,66.1719844969719,2.8663820505235416Z" fill="#aec7e8"></path><path transform="translate(100,100)" d="M60.15566297879359,70.20145219230763A7,7,0,0,1,59.17354372887983,80.61322300073572A100,100,0,0,1,-50.23724526642106,86.46513278797099A7,7,0,0,1,-52.324345504475374,76.21752125236914L-36.59501986656716,55.20645070363251A7,7,0,0,1,-27.753414143161237,53.19537577081468A60,60,0,0,0,33.26922666644878,49.93153870066947A7,7,0,0,1,42.2749037551365,50.988039684037666Z" fill="#ff7f0e"></path><path transform="translate(100,100)" d="M-58.39148199226163,71.67553633614776A7,7,0,0,1,-68.81203161179076,72.55966031796116A100,100,0,0,1,-80.98943620768677,58.65757600481829A7,7,0,0,1,-78.74075686597214,48.44420384835439L-55.84131175386756,35.61875320578229A7,7,0,0,1,-46.9439378158604,37.366652276336346A60,60,0,0,0,-43.22316157706615,41.614400191313976A7,7,0,0,1,-42.662156354353414,50.664465787411146Z" fill="#ffbb78"></path><path transform="translate(100,100)" d="M-82.44422163638242,41.831782141071955A7,7,0,0,1,-92.3277449776407,38.41337667198422A100,100,0,0,1,-94.01761469616977,-34.068873284019254A7,7,0,0,1,-84.30413855192194,-37.94416821259104L-60.83186732125687,-26.199839628059802A7,7,0,0,1,-57.28129292845329,-17.85646886830448A60,60,0,0,0,-56.386887507851874,20.5065579066029A7,7,0,0,1,-59.54477652427783,29.006331498499865Z" fill="#2ca02c"></path><path transform="translate(100,100)" d="M-80.91285754534584,-44.721998637959196A7,7,0,0,1,-83.63506927938695,-54.819478168185306A100,100,0,0,1,-10.924429069821917,-99.40149319551709A7,7,0,0,1,-3.1598815744391606,-92.39568619130748L-3.338741766609022,-66.14983357305557A7,7,0,0,1,-9.258429158600798,-59.28137557036923A60,60,0,0,0,-48.63433719328192,-35.13831592108755A7,7,0,0,1,-57.44058631468079,-32.97767005342796Z" fill="#98df8a"></path></g></g><path class="foreground" aria-hidden="true" d="" display="none"></path></g></g></g></svg>
