<?xml version="1.0" encoding="UTF-8" standalone="no"?><svg xmlns="http://www.w3.org/2000/svg" xmlns:xlink="http://www.w3.org/1999/xlink" contentScriptType="application/ecmascript" contentStyleType="text/css" height="189px" preserveAspectRatio="none" style="width:196px;height:189px;" version="1.1" viewBox="0 0 196 189" width="196px" zoomAndPan="magnify"><defs><filter height="300%" id="fofek8rkyhkzd" width="300%" x="-1" y="-1"><feGaussianBlur result="blurOut" stdDeviation="2.0"/><feColorMatrix in="blurOut" result="blurOut2" type="matrix" values="0 0 0 0 0 0 0 0 0 0 0 0 0 0 0 0 0 0 .4 0"/><feOffset dx="4.0" dy="4.0" in="blurOut2" result="blurOut3"/><feBlend in="SourceGraphic" in2="blurOut3" mode="normal"/></filter></defs><g><rect fill="#FFA500" filter="url(#fofek8rkyhkzd)" height="36.7999" rx="12.5" ry="12.5" style="stroke: #A80036; stroke-width: 1.5;" width="59" x="10" y="76.7999"/><text fill="#000000" font-family="sans-serif" font-size="14" lengthAdjust="spacingAndGlyphs" textLength="39" x="20" y="100.7999">Colors</text><rect fill="#90EE90" filter="url(#fofek8rkyhkzd)" height="36.7999" rx="12.5" ry="12.5" style="stroke: #A80036; stroke-width: 1.5;" width="58" x="119" y="20"/><text fill="#000000" font-family="sans-serif" font-size="14" lengthAdjust="spacingAndGlyphs" textLength="38" x="129" y="43.9999">Green</text><path d="M69,95.1999 L79,95.1999 C94,95.1999 94,38.4 109,38.4 L119,38.4 " fill="none" style="stroke: #A80036; stroke-width: 1.0;"/><rect fill="#FFBBCC" filter="url(#fofek8rkyhkzd)" height="36.7999" rx="12.5" ry="12.5" style="stroke: #A80036; stroke-width: 1.5;" width="51" x="119" y="76.7999"/><text fill="#000000" font-family="sans-serif" font-size="14" lengthAdjust="spacingAndGlyphs" textLength="31" x="129" y="100.7999">Rose</text><path d="M69,95.1999 L79,95.1999 C94,95.1999 94,95.1999 109,95.1999 L119,95.1999 " fill="none" style="stroke: #A80036; stroke-width: 1.0;"/><rect fill="#ADD8E6" filter="url(#fofek8rkyhkzd)" height="36.7999" rx="12.5" ry="12.5" style="stroke: #A80036; stroke-width: 1.5;" width="47" x="119" y="133.5999"/><text fill="#000000" font-family="sans-serif" font-size="14" lengthAdjust="spacingAndGlyphs" textLength="27" x="129" y="157.5998">Blue</text><path d="M69,95.1999 L79,95.1999 C94,95.1999 94,151.9998 109,151.9998 L119,151.9998 " fill="none" style="stroke: #A80036; stroke-width: 1.0;"/><!--MD5=[c67319d46bb2100062824efaf78c28fa]
@startmindmap
*[#Orange] Colors
**[#lightgreen] Green
**[#FFBBCC] Rose
**[#lightblue] Blue
@endmindmap

PlantUML version 1.2020.15(Sun Jun 28 11:39:45 GMT 2020)
(GPL source distribution)
Java Runtime: OpenJDK Runtime Environment
JVM: OpenJDK 64-Bit Server VM
Default Encoding: UTF-8
Language: en
Country: US
--></g></svg>