<?xml version="1.0" encoding="UTF-8" standalone="no"?>
<!DOCTYPE svg PUBLIC "-//W3C//DTD SVG 1.1//EN"
 "http://www.w3.org/Graphics/SVG/1.1/DTD/svg11.dtd">
<!-- Generated by graphviz version 2.42.3 ()
 -->
<!-- Title: G Pages: 1 -->
<svg width="422pt" height="328pt"
 viewBox="0.00 0.00 421.64 328.17" xmlns="http://www.w3.org/2000/svg" xmlns:xlink="http://www.w3.org/1999/xlink">
<g id="graph0" class="graph" transform="scale(1 1) rotate(0) translate(4 324.17)">
<title>G</title>
<!-- mb -->
<g id="node1" class="node">
<title>mb</title>
<ellipse fill="#ffffb3" stroke="black" cx="255.23" cy="-192.4" rx="46.84" ry="36"/>
<text text-anchor="middle" x="255.23" y="-188.9" font-family="Times,serif" font-size="15.00">VIM modes</text>
</g>
<!-- 1 -->
<g id="node2" class="node">
<title>1</title>
<ellipse fill="#80b1d3" stroke="black" cx="377.89" cy="-182.48" rx="36" ry="18"/>
<text text-anchor="middle" x="377.89" y="-178.78" font-family="Times,serif" font-size="14.00">normal</text>
</g>
<!-- mb&#45;&gt;1 -->
<g id="edge1" class="edge">
<title>mb&#45;&gt;1</title>
<polygon fill="indigo" stroke="transparent" stroke-width="10" points="302.35,-193.61 304.35,-193.19 306.36,-192.78 308.38,-192.36 310.41,-191.94 312.45,-191.52 314.49,-191.1 316.53,-190.68 318.57,-190.26 320.61,-189.84 322.65,-189.42 324.68,-189 326.71,-188.58 328.72,-188.17 330.72,-187.75 332.71,-187.34 334.68,-186.94 336.63,-186.53 338.57,-186.14 340.48,-185.74 342.36,-185.35 342.36,-185.35 340.44,-185.27 338.49,-185.19 336.52,-185.11 334.53,-185.02 332.51,-184.94 330.49,-184.85 328.45,-184.77 326.39,-184.68 324.33,-184.6 322.25,-184.51 320.18,-184.42 318.09,-184.33 316.01,-184.25 313.93,-184.16 311.84,-184.07 309.77,-183.98 307.7,-183.9 305.64,-183.81 303.58,-183.72 301.55,-183.64 302.35,-193.61"/>
</g>
<!-- 2 -->
<g id="node3" class="node">
<title>2</title>
<ellipse fill="#fccde5" stroke="black" cx="311.21" cy="-82.56" rx="36.29" ry="18"/>
<text text-anchor="middle" x="311.21" y="-78.86" font-family="Times,serif" font-size="14.00">replace</text>
</g>
<!-- mb&#45;&gt;2 -->
<g id="edge2" class="edge">
<title>mb&#45;&gt;2</title>
<polygon fill="indigo" stroke="transparent" stroke-width="10" points="276.78,-161.12 278.05,-158.08 279.34,-154.99 280.65,-151.84 281.98,-148.67 283.32,-145.46 284.67,-142.23 286.02,-139 287.37,-135.76 288.71,-132.54 290.05,-129.33 291.38,-126.15 292.69,-123.01 293.98,-119.91 295.25,-116.87 296.5,-113.89 297.71,-110.99 298.89,-108.16 300.02,-105.44 301.12,-102.81 302.17,-100.29 302.17,-100.29 300.75,-102.62 299.27,-105.05 297.73,-107.58 296.14,-110.19 294.51,-112.87 292.83,-115.63 291.11,-118.44 289.36,-121.31 287.59,-124.22 285.8,-127.16 283.99,-130.13 282.17,-133.12 280.35,-136.11 278.52,-139.1 276.7,-142.09 274.9,-145.05 273.1,-148 271.33,-150.9 269.59,-153.77 267.87,-156.58 276.78,-161.12"/>
</g>
<!-- 3 -->
<g id="node4" class="node">
<title>3</title>
<ellipse fill="#fb8072" stroke="black" cx="142.15" cy="-133.63" rx="31.4" ry="18"/>
<text text-anchor="middle" x="142.15" y="-129.93" font-family="Times,serif" font-size="14.00">visual</text>
</g>
<!-- mb&#45;&gt;3 -->
<g id="edge3" class="edge">
<title>mb&#45;&gt;3</title>
<polygon fill="indigo" stroke="transparent" stroke-width="10" points="218.62,-167.74 215.96,-166.64 213.26,-165.53 210.55,-164.4 207.81,-163.27 205.05,-162.13 202.29,-160.99 199.52,-159.84 196.75,-158.7 193.99,-157.56 191.25,-156.42 188.52,-155.29 185.81,-154.17 183.13,-153.07 180.49,-151.97 177.88,-150.89 175.32,-149.84 172.81,-148.8 170.35,-147.78 167.96,-146.79 165.63,-145.83 165.63,-145.83 167.75,-147.18 169.94,-148.57 172.18,-150 174.48,-151.46 176.81,-152.95 179.19,-154.46 181.61,-156 184.05,-157.55 186.53,-159.13 189.02,-160.71 191.53,-162.31 194.05,-163.91 196.57,-165.52 199.1,-167.13 201.62,-168.73 204.13,-170.33 206.64,-171.92 209.12,-173.5 211.58,-175.07 214.01,-176.61 218.62,-167.74"/>
</g>
<!-- 4 -->
<g id="node5" class="node">
<title>4</title>
<ellipse fill="#8dd3c7" stroke="black" cx="320.51" cy="-296.37" rx="44.39" ry="18"/>
<text text-anchor="middle" x="320.51" y="-292.67" font-family="Times,serif" font-size="14.00">execution</text>
</g>
<!-- mb&#45;&gt;4 -->
<g id="edge4" class="edge">
<title>mb&#45;&gt;4</title>
<polygon fill="indigo" stroke="transparent" stroke-width="10" points="271.47,-227.67 273.37,-230.23 275.3,-232.82 277.26,-235.46 279.23,-238.12 281.23,-240.8 283.23,-243.5 285.24,-246.2 287.25,-248.9 289.26,-251.6 291.25,-254.28 293.23,-256.94 295.18,-259.57 297.11,-262.16 299.01,-264.71 300.87,-267.21 302.68,-269.65 304.45,-272.03 306.16,-274.33 307.82,-276.56 309.41,-278.7 309.41,-278.7 308.17,-276.34 306.89,-273.88 305.56,-271.34 304.18,-268.71 302.77,-266.02 301.33,-263.26 299.86,-260.44 298.36,-257.58 296.84,-254.67 295.3,-251.74 293.76,-248.78 292.2,-245.8 290.64,-242.81 289.08,-239.83 287.52,-236.85 285.97,-233.89 284.43,-230.95 282.91,-228.04 281.41,-225.18 279.94,-222.36 271.47,-227.67"/>
</g>
<!-- 5 -->
<g id="node6" class="node">
<title>5</title>
<ellipse fill="#fdb462" stroke="black" cx="199.11" cy="-302.17" rx="30.59" ry="18"/>
<text text-anchor="middle" x="199.11" y="-298.47" font-family="Times,serif" font-size="14.00">insert</text>
</g>
<!-- mb&#45;&gt;5 -->
<g id="edge5" class="edge">
<title>mb&#45;&gt;5</title>
<polygon fill="brown" stroke="transparent" stroke-width="18" points="230.07,-221.84 228.97,-224.98 227.84,-228.19 226.7,-231.45 225.55,-234.74 224.38,-238.06 223.21,-241.4 222.04,-244.75 220.86,-248.1 219.69,-251.44 218.53,-254.76 217.37,-258.05 216.23,-261.31 215.11,-264.51 214.01,-267.66 212.93,-270.73 211.88,-273.73 210.86,-276.64 209.87,-279.46 208.92,-282.16 208.01,-284.75 208.01,-284.75 209.58,-282.5 211.22,-280.15 212.92,-277.7 214.68,-275.17 216.5,-272.56 218.36,-269.88 220.27,-267.15 222.21,-264.36 224.17,-261.53 226.17,-258.67 228.18,-255.78 230.2,-252.88 232.23,-249.96 234.25,-247.05 236.28,-244.14 238.29,-241.25 240.28,-238.39 242.25,-235.56 244.19,-232.77 246.1,-230.03 230.07,-221.84"/>
<text text-anchor="middle" x="207.55" y="-259.14" font-family="Times,serif" font-size="14.00">i,s,a,r</text>
</g>
<!-- 6 -->
<g id="node7" class="node">
<title>6</title>
<ellipse fill="#b3de69" stroke="black" cx="27" cy="-168.27" rx="27" ry="18"/>
<text text-anchor="middle" x="27" y="-164.57" font-family="Times,serif" font-size="14.00">line</text>
</g>
<!-- 3&#45;&gt;6 -->
<g id="edge6" class="edge">
<title>3&#45;&gt;6</title>
<polygon fill="#6e6e6e" stroke="transparent" stroke-width="10" points="112.84,-137.22 110.01,-138.32 107.1,-139.44 104.12,-140.6 101.08,-141.77 97.99,-142.96 94.86,-144.17 91.7,-145.4 88.51,-146.63 85.31,-147.86 82.11,-149.1 78.91,-150.34 75.73,-151.57 72.57,-152.79 69.44,-154 66.35,-155.19 63.32,-156.36 60.34,-157.51 57.44,-158.64 54.61,-159.73 51.88,-160.79 51.88,-160.79 54.74,-160.16 57.7,-159.51 60.75,-158.84 63.86,-158.16 67.04,-157.47 70.27,-156.76 73.55,-156.04 76.86,-155.31 80.19,-154.58 83.54,-153.85 86.89,-153.12 90.24,-152.38 93.58,-151.65 96.89,-150.93 100.17,-150.21 103.4,-149.5 106.59,-148.8 109.71,-148.12 112.75,-147.45 115.72,-146.8 112.84,-137.22"/>
</g>
<!-- 7 -->
<g id="node8" class="node">
<title>7</title>
<ellipse fill="#bebada" stroke="black" cx="107.45" cy="-18" rx="30.59" ry="18"/>
<text text-anchor="middle" x="107.45" y="-14.3" font-family="Times,serif" font-size="14.00">block</text>
</g>
<!-- 3&#45;&gt;7 -->
<g id="edge7" class="edge">
<title>3&#45;&gt;7</title>
<polygon fill="#6e6e6e" stroke="transparent" stroke-width="10" points="141.6,-114.38 140.39,-111.08 139.11,-107.59 137.76,-103.92 136.36,-100.11 134.92,-96.16 133.43,-92.11 131.91,-87.97 130.37,-83.76 128.81,-79.51 127.24,-75.23 125.68,-70.96 124.12,-66.71 122.57,-62.5 121.05,-58.35 119.56,-54.29 118.11,-50.34 116.71,-46.51 115.36,-42.84 114.08,-39.33 112.86,-36.02 112.86,-36.02 113.67,-39.45 114.53,-43.09 115.43,-46.9 116.36,-50.86 117.33,-54.96 118.32,-59.17 119.33,-63.47 120.36,-67.83 121.4,-72.24 122.45,-76.67 123.49,-81.1 124.53,-85.51 125.56,-89.87 126.57,-94.17 127.57,-98.37 128.53,-102.46 129.46,-106.42 130.36,-110.21 131.21,-113.83 132.02,-117.25 141.6,-114.38"/>
</g>
</g>
</svg>
