<?xml version="1.0" encoding="UTF-8" standalone="no"?>
<!DOCTYPE svg PUBLIC "-//W3C//DTD SVG 1.1//EN"
 "http://www.w3.org/Graphics/SVG/1.1/DTD/svg11.dtd">
<!-- Generated by graphviz version 2.42.3 ()
 -->
<!-- Title: G Pages: 1 -->
<svg width="322pt" height="60pt"
 viewBox="0.00 0.00 321.60 60.00" xmlns="http://www.w3.org/2000/svg" xmlns:xlink="http://www.w3.org/1999/xlink">
<g id="graph0" class="graph" transform="scale(1 1) rotate(0) translate(4 56)">
<title>G</title>
<!-- 1 -->
<g id="node1" class="node">
<title>1</title>
<ellipse fill="blue" stroke="blue" cx="7.2" cy="-43.5" rx="7.2" ry="7.2"/>
</g>
<!-- 2 -->
<g id="node2" class="node">
<title>2</title>
<ellipse fill="blue" stroke="blue" cx="57.6" cy="-43.5" rx="7.2" ry="7.2"/>
</g>
<!-- 1&#45;&gt;2 -->
<g id="edge1" class="edge">
<title>1&#45;&gt;2</title>
<path fill="none" stroke="brown" stroke-width="2" d="M14.53,-43.5C23.75,-43.5 40.8,-43.5 50.12,-43.5"/>
</g>
<!-- 3 -->
<g id="node3" class="node">
<title>3</title>
<ellipse fill="blue" stroke="blue" cx="170.2" cy="-43.5" rx="7.2" ry="7.2"/>
</g>
<!-- 2&#45;&gt;3 -->
<g id="edge2" class="edge">
<title>2&#45;&gt;3</title>
<path fill="none" stroke="brown" stroke-width="2" d="M64.86,-43.5C84.24,-43.5 143.08,-43.5 162.73,-43.5"/>
</g>
<!-- 6 -->
<g id="node6" class="node">
<title>6</title>
<ellipse fill="blue" stroke="blue" cx="108" cy="-8.5" rx="7.2" ry="7.2"/>
</g>
<!-- 2&#45;&gt;6 -->
<g id="edge5" class="edge">
<title>2&#45;&gt;6</title>
<path fill="none" stroke="brown" stroke-width="2" d="M63.78,-39.75C73.05,-33.05 92.37,-19.08 101.71,-12.32"/>
</g>
<!-- 4 -->
<g id="node4" class="node">
<title>4</title>
<ellipse fill="blue" stroke="blue" cx="232.4" cy="-43.5" rx="7.2" ry="7.2"/>
</g>
<!-- 3&#45;&gt;4 -->
<g id="edge3" class="edge">
<title>3&#45;&gt;4</title>
<path fill="none" stroke="brown" stroke-width="2" d="M177.64,-43.5C189.29,-43.5 213.7,-43.5 225.18,-43.5"/>
</g>
<!-- 5 -->
<g id="node5" class="node">
<title>5</title>
<polygon fill="none" stroke="blue" points="313.6,-52 275.6,-52 275.6,-35 313.6,-35 313.6,-52"/>
<text text-anchor="middle" x="294.6" y="-41.6" font-family="Times,serif" font-size="8.00">master</text>
</g>
<!-- 4&#45;&gt;5 -->
<g id="edge4" class="edge">
<title>4&#45;&gt;5</title>
<path fill="none" stroke="brown" stroke-width="2" d="M239.84,-43.5C248.27,-43.5 263.4,-43.5 275.46,-43.5"/>
</g>
<!-- 7 -->
<g id="node7" class="node">
<title>7</title>
<polygon fill="none" stroke="blue" points="189.2,-17 151.2,-17 151.2,0 189.2,0 189.2,-17"/>
<text text-anchor="middle" x="170.2" y="-6.6" font-family="Times,serif" font-size="8.00">branch</text>
</g>
<!-- 6&#45;&gt;7 -->
<g id="edge6" class="edge">
<title>6&#45;&gt;7</title>
<path fill="none" stroke="brown" stroke-width="2" d="M115.44,-8.5C123.87,-8.5 139,-8.5 151.06,-8.5"/>
</g>
<!-- 7&#45;&gt;4 -->
<g id="edge7" class="edge">
<title>7&#45;&gt;4</title>
<path fill="none" stroke="brown" stroke-width="2" d="M186.08,-17.15C198.89,-24.6 216.7,-34.95 225.7,-40.19"/>
</g>
</g>
</svg>
