<?xml version="1.0" encoding="UTF-8" standalone="no"?>
<!DOCTYPE svg PUBLIC "-//W3C//DTD SVG 1.1//EN"
 "http://www.w3.org/Graphics/SVG/1.1/DTD/svg11.dtd">
<!-- Generated by graphviz version 2.42.3 ()
 -->
<!-- Title: G Pages: 1 -->
<svg width="411pt" height="374pt"
 viewBox="0.00 0.00 411.04 374.14" xmlns="http://www.w3.org/2000/svg" xmlns:xlink="http://www.w3.org/1999/xlink">
<g id="graph0" class="graph" transform="scale(1 1) rotate(0) translate(4 370.14)">
<title>G</title>
<!-- mb -->
<g id="node1" class="node">
<title>mb</title>
<ellipse fill="#ffffb3" stroke="black" cx="203.24" cy="-183.02" rx="61.96" ry="61.96"/>
<text text-anchor="middle" x="203.24" y="-178.32" font-family="Times,serif" font-size="19.00">Motherboard</text>
</g>
<!-- 1 -->
<g id="node2" class="node">
<title>1</title>
<ellipse fill="#80b1d3" stroke="black" cx="346.02" cy="-100.01" rx="28.7" ry="18"/>
<text text-anchor="middle" x="346.02" y="-96.31" font-family="Times,serif" font-size="14.00">CPU</text>
</g>
<!-- mb&#45;&gt;1 -->
<g id="edge1" class="edge">
<title>mb&#45;&gt;1</title>
<polygon fill="indigo" stroke="transparent" stroke-width="20" points="261.84,-160.52 265.15,-157.98 268.5,-155.42 271.87,-152.85 275.26,-150.26 278.65,-147.66 282.04,-145.07 285.43,-142.48 288.8,-139.91 292.14,-137.35 295.45,-134.82 298.72,-132.32 301.94,-129.86 305.1,-127.44 308.2,-125.07 311.23,-122.76 314.18,-120.5 317.04,-118.32 319.81,-116.2 322.47,-114.17 325.01,-112.22 325.01,-112.22 322.06,-113.47 318.98,-114.78 315.77,-116.14 312.46,-117.54 309.04,-118.99 305.53,-120.47 301.94,-121.99 298.27,-123.55 294.53,-125.13 290.74,-126.73 286.91,-128.36 283.03,-130 279.13,-131.65 275.21,-133.31 271.27,-134.98 267.34,-136.64 263.42,-138.3 259.51,-139.96 255.63,-141.6 251.78,-143.23 261.84,-160.52"/>
</g>
<!-- 2 -->
<g id="node3" class="node">
<title>2</title>
<ellipse fill="#fccde5" stroke="black" cx="202.97" cy="-18" rx="48.99" ry="18"/>
<text text-anchor="middle" x="202.97" y="-14.3" font-family="Times,serif" font-size="14.00">SSD Drive</text>
</g>
<!-- mb&#45;&gt;2 -->
<g id="edge2" class="edge">
<title>mb&#45;&gt;2</title>
<polygon fill="indigo" stroke="transparent" stroke-width="20" points="213.14,-121.09 212.59,-116.51 212.04,-111.88 211.48,-107.22 210.92,-102.54 210.37,-97.85 209.81,-93.18 209.25,-88.52 208.7,-83.9 208.16,-79.32 207.62,-74.81 207.09,-70.37 206.57,-66.02 206.07,-61.77 205.57,-57.64 205.1,-53.64 204.64,-49.77 204.19,-46.07 203.77,-42.53 203.37,-39.17 203,-36.01 203,-36.01 202.63,-39.17 202.24,-42.53 201.83,-46.07 201.4,-49.78 200.95,-53.64 200.49,-57.65 200.01,-61.78 199.52,-66.03 199.01,-70.39 198.5,-74.82 197.98,-79.34 197.45,-83.92 196.91,-88.54 196.37,-93.2 195.83,-97.88 195.28,-102.56 194.74,-107.25 194.2,-111.91 193.67,-116.54 193.14,-121.12 213.14,-121.09"/>
</g>
<!-- 3 -->
<g id="node4" class="node">
<title>3</title>
<ellipse fill="#fb8072" stroke="black" cx="61.74" cy="-267.92" rx="61.99" ry="18"/>
<text text-anchor="middle" x="61.74" y="-264.22" font-family="Times,serif" font-size="14.00">Network Card</text>
</g>
<!-- mb&#45;&gt;3 -->
<g id="edge3" class="edge">
<title>mb&#45;&gt;3</title>
<polygon fill="indigo" stroke="transparent" stroke-width="20" points="145,-206.3 142.12,-208.63 139.22,-210.97 136.29,-213.33 133.36,-215.71 130.41,-218.09 127.46,-220.47 124.52,-222.85 121.58,-225.23 118.65,-227.59 115.75,-229.94 112.86,-232.27 110.01,-234.57 107.19,-236.85 104.42,-239.09 101.69,-241.3 99.01,-243.46 96.38,-245.58 93.82,-247.65 91.33,-249.66 88.91,-251.62 88.91,-251.62 91.78,-250.4 94.73,-249.15 97.76,-247.86 100.86,-246.55 104.03,-245.2 107.26,-243.83 110.55,-242.44 113.88,-241.02 117.26,-239.59 120.67,-238.14 124.11,-236.68 127.57,-235.21 131.05,-233.74 134.53,-232.26 138.02,-230.78 141.51,-229.3 144.99,-227.82 148.45,-226.35 151.88,-224.9 155.29,-223.45 145,-206.3"/>
</g>
<!-- 4 -->
<g id="node5" class="node">
<title>4</title>
<ellipse fill="#8dd3c7" stroke="black" cx="347.14" cy="-264.11" rx="55.79" ry="18"/>
<text text-anchor="middle" x="347.14" y="-260.41" font-family="Times,serif" font-size="14.00">PCI Express</text>
</g>
<!-- mb&#45;&gt;4 -->
<g id="edge4" class="edge">
<title>mb&#45;&gt;4</title>
<polygon fill="indigo" stroke="transparent" stroke-width="20" points="252.32,-222.16 255.75,-223.5 259.2,-224.85 262.68,-226.21 266.17,-227.58 269.68,-228.96 273.19,-230.33 276.69,-231.7 280.19,-233.07 283.67,-234.43 287.13,-235.79 290.56,-237.13 293.95,-238.46 297.31,-239.78 300.61,-241.07 303.87,-242.35 307.06,-243.6 310.19,-244.82 313.25,-246.02 316.22,-247.19 319.11,-248.32 319.11,-248.32 316.65,-246.43 314.11,-244.49 311.5,-242.5 308.84,-240.45 306.11,-238.37 303.33,-236.25 300.51,-234.09 297.65,-231.9 294.75,-229.68 291.83,-227.44 288.88,-225.19 285.91,-222.92 282.93,-220.63 279.94,-218.35 276.95,-216.06 273.96,-213.77 270.98,-211.49 268.01,-209.22 265.06,-206.97 262.14,-204.73 252.32,-222.16"/>
</g>
<!-- 5 -->
<g id="node6" class="node">
<title>5</title>
<ellipse fill="#fdb462" stroke="black" cx="206.17" cy="-348.14" rx="30.59" ry="18"/>
<text text-anchor="middle" x="206.17" y="-344.44" font-family="Times,serif" font-size="14.00">RAM</text>
</g>
<!-- mb&#45;&gt;5 -->
<g id="edge5" class="edge">
<title>mb&#45;&gt;5</title>
<polygon fill="indigo" stroke="transparent" stroke-width="20" points="194.34,-245.15 194.96,-249.73 195.58,-254.35 196.21,-259 196.85,-263.67 197.48,-268.35 198.11,-273.02 198.74,-277.68 199.37,-282.29 199.99,-286.86 200.6,-291.37 201.2,-295.8 201.79,-300.14 202.36,-304.39 202.92,-308.51 203.46,-312.51 203.98,-316.37 204.49,-320.07 204.96,-323.61 205.42,-326.96 205.85,-330.12 205.85,-330.12 206.16,-326.95 206.5,-323.58 206.85,-320.03 207.22,-316.31 207.6,-312.44 208,-308.42 208.42,-304.28 208.84,-300.02 209.27,-295.66 209.72,-291.21 210.17,-286.68 210.62,-282.09 211.08,-277.46 211.55,-272.79 212.02,-268.1 212.48,-263.4 212.95,-258.7 213.42,-254.03 213.88,-249.39 214.33,-244.8 194.34,-245.15"/>
</g>
<!-- 6 -->
<g id="node7" class="node">
<title>6</title>
<ellipse fill="#b3de69" stroke="black" cx="59.63" cy="-101.8" rx="33.6" ry="18"/>
<text text-anchor="middle" x="59.63" y="-98.1" font-family="Times,serif" font-size="14.00">SMPS</text>
</g>
<!-- mb&#45;&gt;6 -->
<g id="edge6" class="edge">
<title>mb&#45;&gt;6</title>
<polygon fill="indigo" stroke="transparent" stroke-width="20" points="154.27,-143.84 150.56,-142.34 146.82,-140.83 143.04,-139.3 139.25,-137.77 135.46,-136.23 131.66,-134.69 127.86,-133.16 124.09,-131.63 120.33,-130.12 116.61,-128.61 112.93,-127.12 109.3,-125.65 105.72,-124.21 102.21,-122.79 98.77,-121.39 95.41,-120.04 92.15,-118.72 88.97,-117.43 85.91,-116.19 82.96,-115 82.96,-115 85.5,-116.91 88.14,-118.9 90.88,-120.96 93.69,-123.08 96.59,-125.26 99.55,-127.49 102.58,-129.76 105.66,-132.08 108.79,-134.44 111.97,-136.83 115.17,-139.24 118.41,-141.67 121.66,-144.12 124.93,-146.58 128.21,-149.05 131.48,-151.51 134.75,-153.97 138,-156.41 141.23,-158.84 144.43,-161.25 154.27,-143.84"/>
</g>
</g>
</svg>
