<?xml version="1.0" encoding="UTF-8" standalone="no"?>
<!DOCTYPE svg PUBLIC "-//W3C//DTD SVG 1.1//EN"
 "http://www.w3.org/Graphics/SVG/1.1/DTD/svg11.dtd">
<!-- Generated by graphviz version 2.42.3 ()
 -->
<!-- Title: D Pages: 1 -->
<svg width="518pt" height="128pt"
 viewBox="0.00 0.00 518.04 128.08" xmlns="http://www.w3.org/2000/svg" xmlns:xlink="http://www.w3.org/1999/xlink">
<g id="graph0" class="graph" transform="scale(1 1) rotate(0) translate(4 124.08)">
<title>D</title>
<!-- A -->
<g id="node1" class="node">
<title>A</title>
<polygon fill="#8dd3c7" stroke="black" points="387.27,-120.08 221.27,-120.08 221.27,-84.08 387.27,-84.08 387.27,-120.08"/>
<text text-anchor="middle" x="304.27" y="-95.88" font-family="Times,serif" font-size="24.00">docker Registry</text>
</g>
<!-- B -->
<g id="node2" class="node">
<title>B</title>
<ellipse fill="#ffffb3" stroke="black" cx="86.27" cy="-24.04" rx="86.03" ry="24.08"/>
<text text-anchor="middle" x="86.27" y="-17.84" font-family="Times,serif" font-size="24.00">dockerHub</text>
</g>
<!-- A&#45;&gt;B -->
<g id="edge1" class="edge">
<title>A&#45;&gt;B</title>
<path fill="none" stroke="black" stroke-width="1.5" d="M255.34,-84.02C223.69,-72.98 182.22,-58.51 148.27,-46.67"/>
<polygon fill="black" stroke="black" stroke-width="1.5" points="149.04,-43.23 138.45,-43.24 146.74,-49.84 149.04,-43.23"/>
</g>
<!-- C -->
<g id="node3" class="node">
<title>C</title>
<ellipse fill="#bebada" stroke="black" cx="304.27" cy="-24.04" rx="113.69" ry="24.08"/>
<text text-anchor="middle" x="304.27" y="-17.84" font-family="Times,serif" font-size="24.00">github Package</text>
</g>
<!-- A&#45;&gt;C -->
<g id="edge2" class="edge">
<title>A&#45;&gt;C</title>
<path fill="none" stroke="black" stroke-width="1.5" d="M304.27,-83.83C304.27,-76.27 304.27,-67.13 304.27,-58.34"/>
<polygon fill="black" stroke="black" stroke-width="1.5" points="307.77,-58.28 304.27,-48.28 300.77,-58.28 307.77,-58.28"/>
</g>
<!-- D -->
<g id="node4" class="node">
<title>D</title>
<ellipse fill="#fb8072" stroke="black" cx="473.27" cy="-24.04" rx="36.54" ry="24.08"/>
<text text-anchor="middle" x="473.27" y="-17.84" font-family="Times,serif" font-size="24.00">aws</text>
</g>
<!-- A&#45;&gt;D -->
<g id="edge3" class="edge">
<title>A&#45;&gt;D</title>
<path fill="none" stroke="black" stroke-width="1.5" d="M345.53,-84C369.53,-73.89 400.28,-60.64 427.27,-48.08 430.01,-46.81 432.84,-45.46 435.67,-44.09"/>
<polygon fill="black" stroke="black" stroke-width="1.5" points="437.24,-47.22 444.68,-39.68 434.16,-40.94 437.24,-47.22"/>
</g>
</g>
</svg>
