<?xml version="1.0" encoding="UTF-8" standalone="no"?>
<!DOCTYPE svg PUBLIC "-//W3C//DTD SVG 1.1//EN"
 "http://www.w3.org/Graphics/SVG/1.1/DTD/svg11.dtd">
<!-- Generated by graphviz version 2.43.0 (0)
 -->
<!-- Title: G Pages: 1 -->
<svg width="428pt" height="132pt"
 viewBox="0.00 0.00 427.50 132.00" xmlns="http://www.w3.org/2000/svg" xmlns:xlink="http://www.w3.org/1999/xlink">
<g id="graph0" class="graph" transform="scale(1 1) rotate(0) translate(4 128)">
<title>G</title>
<text text-anchor="middle" x="209.75" y="-7.8" font-family="Times,serif" font-size="14.00">CI/CD pipeline</text>
<!-- a -->
<g id="node1" class="node">
<title>a</title>
<polygon fill="#8dd3c7" stroke="#000000" points="108,-124 0,-124 0,-23 108,-23 108,-124"/>
<image xlink:href="user.png" width="108px" height="101px" preserveAspectRatio="xMinYMin meet" x="0" y="-124"/>
<text text-anchor="middle" x="54" y="-69.8" font-family="Times,serif" font-size="14.00">a</text>
</g>
<!-- b -->
<g id="node2" class="node">
<title>b</title>
<polygon fill="#ffffb3" stroke="black" points="162,-85.5 126,-85.5 126,-61.5 162,-61.5 162,-55.5 180,-73.5 162,-91.5 162,-85.5"/>
<text text-anchor="middle" x="153" y="-69.8" font-family="Times,serif" font-size="14.00">build</text>
</g>
<!-- c -->
<g id="node3" class="node">
<title>c</title>
<polygon fill="#bebada" stroke="black" points="234,-85.5 198,-85.5 198,-61.5 234,-61.5 234,-55.5 252,-73.5 234,-91.5 234,-85.5"/>
<text text-anchor="middle" x="225" y="-69.8" font-family="Times,serif" font-size="14.00">test</text>
</g>
<!-- d -->
<g id="node4" class="node">
<title>d</title>
<polygon fill="#fb8072" stroke="black" points="306,-85.5 270,-85.5 270,-61.5 306,-61.5 306,-55.5 324,-73.5 306,-91.5 306,-85.5"/>
<text text-anchor="middle" x="297" y="-69.8" font-family="Times,serif" font-size="14.00">lint</text>
</g>
<!-- e -->
<g id="node5" class="node">
<title>e</title>
<polygon fill="#80b1d3" stroke="black" points="401.5,-85.5 342.5,-85.5 342.5,-61.5 401.5,-61.5 401.5,-55.5 419.5,-73.5 401.5,-91.5 401.5,-85.5"/>
<text text-anchor="middle" x="381" y="-69.8" font-family="Times,serif" font-size="14.00">artifacts</text>
</g>
</g>
</svg>
